<?xml version="1.0" encoding="iso-8859-1"?>
<!-- Uploaded to: SVG Repo, www.svgrepo.com, Generator: SVG Repo Mixer Tools -->
<svg fill="#000000" height="800px" width="800px" version="1.1" id="Layer_1" xmlns="http://www.w3.org/2000/svg" xmlns:xlink="http://www.w3.org/1999/xlink" 
	 viewBox="0 0 502 502" xml:space="preserve">
<g>
	<g>
		<g>
			<path d="M492,123.5H10c-5.522,0-10,4.477-10,10v235c0,5.523,4.478,10,10,10h482c5.522,0,10-4.477,10-10v-235
				C502,127.977,497.522,123.5,492,123.5z M20,180.844c31.574,4.796,55.963,34.42,55.963,70.156S51.574,316.361,20,321.156V180.844z
				 M241,358.5H98.243c4.132-3.143,8.085-6.617,11.831-10.401c3.886-3.925,3.854-10.256-0.07-14.142
				c-3.926-3.885-10.255-3.854-14.143,0.071c-6.146,6.207-12.935,11.379-20.18,15.374c-3.41,1.879-5.281,5.457-5.16,9.099H20
				v-17.159C62.633,336.52,95.963,297.846,95.963,251S62.633,165.48,20,160.658V143.5h50.491c-0.115,3.638,1.757,7.209,5.164,9.085
				c7.246,3.99,14.036,9.159,20.183,15.362c1.955,1.974,4.529,2.962,7.104,2.962c2.544,0,5.089-0.964,7.038-2.896
				c3.924-3.887,3.953-10.218,0.065-14.142c-3.737-3.772-7.681-7.236-11.802-10.371H241V358.5z M482,321.011
				c-31.089-5.262-54.963-34.651-54.963-70.011c0-35.36,23.874-64.749,54.963-70.011V321.011z M482,160.779
				c-42.153,5.309-74.963,43.741-74.963,90.22s32.81,84.91,74.963,90.22v17.28h-49.522v0.001c0.121-3.642-1.75-7.219-5.16-9.099
				c-7.245-3.994-14.034-9.167-20.18-15.374c-3.887-3.925-10.217-3.956-14.143-0.071c-3.924,3.886-3.956,10.217-0.07,14.142
				c3.746,3.783,7.699,7.258,11.831,10.401H261v-215h143.759c-4.121,3.135-8.065,6.599-11.802,10.371
				c-3.888,3.923-3.858,10.255,0.065,14.142c1.95,1.932,4.494,2.896,7.038,2.896c2.574,0,5.148-0.988,7.104-2.962
				c6.146-6.203,12.937-11.372,20.183-15.362c3.407-1.876,5.279-5.447,5.164-9.085H482V160.779z"/>
			<path d="M136.296,226.895c-5.495,0.552-9.503,5.454-8.951,10.949c0.434,4.33,0.655,8.757,0.655,13.156
				c0,4.384-0.219,8.799-0.651,13.122c-0.55,5.496,3.46,10.396,8.955,10.945c0.339,0.034,0.674,0.051,1.007,0.051
				c5.075,0,9.423-3.849,9.938-9.006C147.747,261.13,148,256.046,148,251c0-5.064-0.254-10.162-0.755-15.153
				C146.693,230.351,141.793,226.344,136.296,226.895z"/>
			<path d="M134.637,283.275c-5.266-1.673-10.886,1.237-12.56,6.5c-2.674,8.413-6.228,16.417-10.563,23.789
				c-2.799,4.761-1.208,10.89,3.553,13.688c1.592,0.936,3.337,1.381,5.059,1.381c3.429,0,6.768-1.764,8.631-4.934
				c5.089-8.657,9.255-18.033,12.381-27.865C142.811,290.572,139.9,284.949,134.637,283.275z"/>
			<path d="M111.495,188.403c4.337,7.372,7.894,15.375,10.571,23.788c1.354,4.254,5.289,6.969,9.526,6.969
				c1.005,0,2.027-0.152,3.036-0.474c5.263-1.675,8.171-7.3,6.496-12.562c-3.13-9.832-7.299-19.206-12.391-27.861
				c-2.8-4.76-8.93-6.349-13.689-3.549C110.283,177.514,108.694,183.643,111.495,188.403z"/>
			<path d="M121,256v-10c0-5.523-4.478-10-10-10c-5.522,0-10,4.477-10,10v10c0,5.523,4.478,10,10,10
				C116.522,266,121,261.523,121,256z"/>
			<path d="M380.923,289.776c-1.674-5.264-7.302-8.17-12.56-6.5c-5.264,1.673-8.174,7.296-6.501,12.56
				c3.126,9.833,7.292,19.208,12.381,27.865c1.864,3.169,5.202,4.934,8.631,4.934c1.722,0,3.467-0.445,5.059-1.381
				c4.761-2.799,6.352-8.928,3.553-13.688C387.15,306.192,383.597,298.188,380.923,289.776z"/>
			<path d="M366.696,275.067c5.495-0.549,9.505-5.45,8.955-10.945C375.219,259.799,375,255.384,375,251
				c0-4.399,0.221-8.826,0.655-13.156c0.552-5.495-3.456-10.397-8.951-10.949c-5.5-0.544-10.397,3.457-10.949,8.952
				C355.254,240.838,355,245.936,355,251c0,5.046,0.253,10.13,0.751,15.112c0.516,5.157,4.863,9.006,9.938,9.006
				C366.021,275.118,366.358,275.101,366.696,275.067z"/>
			<path d="M368.371,218.687c1.009,0.321,2.03,0.474,3.036,0.474c4.237,0,8.172-2.715,9.526-6.969
				c2.678-8.413,6.234-16.416,10.57-23.787c2.801-4.76,1.212-10.889-3.549-13.689c-4.763-2.801-10.89-1.211-13.689,3.549
				c-5.092,8.655-9.261,18.029-12.391,27.861C360.2,211.387,363.108,217.011,368.371,218.687z"/>
			<path d="M392,236c-5.522,0-10,4.477-10,10v10c0,5.523,4.478,10,10,10c5.522,0,10-4.477,10-10v-10
				C402,240.477,397.522,236,392,236z"/>
		</g>
	</g>
</g>
</svg>