<?xml version="1.0" encoding="iso-8859-1"?>
<!-- Uploaded to: SVG Repo, www.svgrepo.com, Generator: SVG Repo Mixer Tools -->
<svg fill="#000000" version="1.1" id="Layer_1" xmlns="http://www.w3.org/2000/svg" xmlns:xlink="http://www.w3.org/1999/xlink" 
	 viewBox="0 0 475 475" xml:space="preserve">
<g transform="translate(0 -540.36)">
	<g>
		<g>
			<rect x="273.7" y="676.608" width="4.9" height="10.1"/>
			<rect x="273.7" y="716.708" width="4.9" height="9.7"/>
			<rect x="273.7" y="736.508" width="4.9" height="10.1"/>
			<rect x="273.7" y="756.408" width="4.9" height="10.1"/>
			<rect x="273.7" y="776.708" width="4.9" height="9.8"/>
			<rect x="273.7" y="796.608" width="4.9" height="10.1"/>
			<rect x="273.7" y="836.708" width="4.9" height="9.7"/>
			<rect x="273.7" y="816.408" width="4.9" height="10.1"/>
			<rect x="273.7" y="876.408" width="4.9" height="10.1"/>
			<rect x="409.4" y="760.21" width="4.9" height="12.7"/>
			<rect x="409.4" y="782.71" width="4.9" height="12.7"/>
			<polygon points="273.7,706.51 278.6,706.51 278.6,703.91 282.7,703.91 282.7,698.71 278.6,698.71 278.6,696.41 273.7,696.41 
				273.7,698.71 269.6,698.71 269.6,703.91 273.7,703.91 			"/>
			<rect x="60.7" y="760.21" width="4.9" height="12.7"/>
			<rect x="60.7" y="782.71" width="4.9" height="12.7"/>
			<polygon points="273.7,866.71 278.6,866.71 278.6,856.51 282.7,856.51 282.7,851.71 269.6,851.71 269.6,856.51 273.7,856.51 			
				"/>
			<rect x="389.9" y="889.908" width="15" height="4.9"/>
			<rect x="70.1" y="889.908" width="15" height="4.9"/>
			<rect x="90" y="889.908" width="15" height="4.9"/>
			<rect x="109.8" y="889.908" width="15" height="4.9"/>
			<rect x="150" y="889.908" width="15" height="4.9"/>
			<rect x="169.8" y="889.908" width="15" height="4.9"/>
			<rect x="190.1" y="889.908" width="15" height="4.9"/>
			<rect x="209.9" y="889.908" width="15" height="4.9"/>
			<rect x="289.8" y="889.908" width="15" height="4.9"/>
			<rect x="269.9" y="889.908" width="15" height="4.9"/>
			<rect x="250.1" y="889.908" width="15" height="4.9"/>
			<rect x="310" y="889.908" width="15" height="4.9"/>
			<rect x="349.8" y="889.908" width="15" height="4.9"/>
			<rect x="370" y="889.908" width="15" height="4.9"/>
			<rect x="389.9" y="660.408" width="15" height="5.3"/>
			<rect x="70.1" y="660.408" width="15" height="5.3"/>
			<rect x="90" y="660.408" width="15" height="5.3"/>
			<rect x="109.8" y="660.408" width="15" height="5.3"/>
			<rect x="150" y="660.408" width="15" height="5.3"/>
			<rect x="169.8" y="660.408" width="15" height="5.3"/>
			<rect x="209.9" y="660.408" width="15" height="5.3"/>
			<rect x="289.8" y="660.408" width="15" height="5.3"/>
			<polygon points="273.7,666.41 278.6,666.41 278.6,665.71 284.9,665.71 284.9,660.41 278.6,660.41 278.6,656.71 273.7,656.71 
				273.7,660.41 269.9,660.41 269.9,665.71 273.7,665.71 			"/>
			<rect x="250.1" y="660.408" width="15" height="5.3"/>
			<rect x="310" y="660.408" width="15" height="5.3"/>
			<rect x="349.8" y="660.408" width="15" height="5.3"/>
			<rect x="370" y="660.408" width="15" height="5.3"/>
			<path d="M0,639.11v4.9v272.6h475v-277.5H0z M38.8,763.91h-5.1v5.3h5.1v17.3h-5.1v4.9h5.1v115.1H10.1v-257.3h28.7V763.91z
				 M129.2,698.71h-5.1v5.3h5.1v147.8h-5.1v4.9h5.1v49.9H49v-11.8h11.8v4.1h4.9v-12.8h-4.9v3.8H49v-33.4h11.8v4.1h4.9v-12.8h-4.9
				v3.8H49v-60.4h4.7v-4.9H49v-17.3h4.7v-5.3H49v-60h11.8v3.7h4.9v-12.7h-4.9v3.7H49v-33h11.8v3.7h4.9v-12.7h-4.9v3.7H49v-11.3h80.2
				V698.71z M232.5,660.31h-2.6v5.3h2.6v33h-4.9v5.3h4.9v71.3h-2.6v4.9h2.6v71.6h-4.9v4.9h4.9v33.4h-2.6v4.9h2.6v11.6h-31.1v-9.8
				h-5.3l0,0v9.8h-56.8v-11.7h5.8v-4.9h-5.8v-33.4h4.7v-4.9h-4.7v-147.7h4.7v-5.3h-4.7v-33h5.8v-5.3h-5.8v-11.3h93.2V660.31z
				 M336.1,660.21h-6.2v5.3h6.2v33h-5.4v5.3h5.4v147.8h-5.4v4.9h5.4v33.4h-6.2v4.9h6.2v11.6h-57.5v-9.8h-4.9v0.1v9.8h-31.1v-11.7
				h2.2v-4.9h-2.2v-33.4h4.9v-4.9h-4.9v-71.6h2.2v-4.9h-2.2v-71.3h4.9v-5.3h-4.9v-33h2.2v-5.3h-2.2v-11.3h93.5V660.21z
				 M426.5,660.41L426.5,660.41l-12.2,0v-3.7h-4.9v12.7h4.9v-3.7h12.2v33h-12.2v-3.7h-4.9v12.7h4.9v-3.7h12.2v60h-5.4v5.3h5.4v17.3
				h-5.4v4.9h5.4v60.4h-12.2v-3.8h-4.9v12.8h4.9v-4.1h12.2v33.4h-12.2v-3.8h-4.9v12.8h4.9v-4.4h12.2v11.6h-80.6v-49.9h5.1v-4.9h-5.1
				v-147.7h5.1v-5.3h-5.1v-49.5h80.6V660.41z M464.9,906.41h-28.7v-115.1h5.1v-4.9h-5.1v-17.3h5.1v-5.3h-5.1v-114.6h28.7V906.41z"/>
			<polygon points="196.1,666.41 201.3,666.41 201.3,665.71 205.1,665.71 205.1,660.41 201.3,660.41 201.3,656.71 196.1,656.71 
				196.1,660.41 190.1,660.41 190.1,665.71 196.1,665.71 			"/>
			<rect x="196.1" y="676.608" width="5.2" height="10.1"/>
			<polygon points="196.1,698.71 192.3,698.71 192.3,703.91 196.1,703.91 196.1,706.51 201.3,706.51 201.3,703.91 205.1,703.91 
				205.1,698.71 201.3,698.71 201.3,696.41 196.1,696.41 			"/>
			<rect x="196.1" y="716.708" width="5.2" height="9.7"/>
			<rect x="196.1" y="736.508" width="5.2" height="10.1"/>
			<rect x="196.1" y="756.408" width="5.2" height="10.1"/>
			<rect x="196.1" y="776.708" width="5.2" height="9.8"/>
			<rect x="196.1" y="796.608" width="5.2" height="10.1"/>
			<rect x="196.1" y="836.708" width="5.2" height="9.7"/>
			<rect x="196.1" y="816.408" width="5.2" height="10.1"/>
			<polygon points="192.3,856.51 196.1,856.51 196.1,866.71 201.3,866.71 201.3,856.51 205.1,856.51 205.1,851.71 192.3,851.71 			
				"/>
			<rect x="196.1" y="876.408" width="5.2" height="10.1"/>
		</g>
	</g>
</g>
</svg>