<!DOCTYPE svg PUBLIC "-//W3C//DTD SVG 1.1//EN" "http://www.w3.org/Graphics/SVG/1.1/DTD/svg11.dtd">
<!-- Uploaded to: SVG Repo, www.svgrepo.com, Transformed by: SVG Repo Mixer Tools -->
<svg height="800px" width="800px" version="1.1" id="Layer_1" xmlns="http://www.w3.org/2000/svg" xmlns:xlink="http://www.w3.org/1999/xlink" viewBox="0 0 447.969 447.969" xml:space="preserve" fill="#000000">
<g id="SVGRepo_bgCarrier" stroke-width="0"/>
<g id="SVGRepo_tracerCarrier" stroke-linecap="round" stroke-linejoin="round"/>
<g id="SVGRepo_iconCarrier"> <g transform="translate(0 -1020.36)" shape-rendering="auto" image-rendering="auto" color-rendering="auto" color-interpolation="sRGB"> <path style="fill:#ffffff;" d="M16.055,1116.313h415.984v256.064H16.055C16.055,1372.378,16.055,1116.313,16.055,1116.313z"/> <path style="fill:#ffffff;" d="M29.051,1128.344h389.992v232H29.051L29.051,1128.344L29.051,1128.344z"/> <g> <path style="fill:#000000;" d="M143.968,1108.399v271.891h16.063v-271.891H143.968z"/> <path style="fill:#000000;" d="M287.944,1108.399v271.891h16.063v-271.891H287.944z"/> <path style="fill:#000000;" d="M216.015,1108.399v31.891h15.945v-31.891H216.015L216.015,1108.399z"/> <path style="fill:#000000;" d="M216.015,1156.352v32.008h15.945v-32.008H216.015L216.015,1156.352z"/> <path style="fill:#000000;" d="M216.015,1204.305v32.008h15.945v-32.008H216.015L216.015,1204.305z"/> <path style="fill:#000000;" d="M216.015,1252.376v32.01h15.945v-32.01H216.015L216.015,1252.376z"/> <path style="fill:#000000;" d="M216.015,1300.329v32.008h15.945v-32.008H216.015L216.015,1300.329z"/> <path style="fill:#000000;" d="M216.015,1348.399v31.891h15.945v-31.891H216.015L216.015,1348.399z"/> </g> <path style="fill:#000000;" d="M0,1100.376v287.938h447.969v-8.031v-279.906H0L0,1100.376z M16.063,1116.313h415.969v256.063 H16.063L16.063,1116.313L16.063,1116.313z"/> </g> </g>
</svg>